# File created by Blade
# Date/Time:  Thu Jan 15 17:55:17 2015
#---------------------------------------------------------
:version 1.10
:name HOM
:units
  mass 1.0
  length 1.000000
  angle deg
:documentation
     Acclaim Skeleton File
:root
   axis xyz
   order TX TY TZ RX RY RZ
   position 0.000000 0.000000 0.000000
   orientation 0 0 0
:bonedata
   begin
      id 1
      name Spine_dum
      direction 0.000000 1.000000 0.000000
      length 5.015652
      axis 0.0 0.0 0.0 xyz
   end
   begin
      id 2
      name LeftUpLeg_dum
      direction 1.000000 0.000000 0.000000
      length 4.275145
      axis 0.0 0.0 0.0 xyz
   end
   begin
      id 3
      name RightUpLeg_dum
      direction -1.000000 0.000000 0.000000
      length 4.275145
      axis 0.0 0.0 0.0 xyz
   end
   begin
      id 4
      name Spine
      direction 0.000000 1.000000 0.000000
      length 0.000000
      axis 0.0 0.0 0.0 xyz
      dof rx ry rz
   end
   begin
      id 5
      name Spine_dum1
      direction 0.000000 1.000000 0.000000
      length 15.980521
      axis 0.0 0.0 0.0 xyz
   end
   begin
      id 6
      name Spine_dum2
      direction 0.000000 1.000000 0.000000
      length 12.162712
      axis 0.0 0.0 0.0 xyz
   end
   begin
      id 7
      name Spine_dum3
      direction 0.000000 1.000000 0.000000
      length 12.162712
      axis 0.0 0.0 0.0 xyz
   end
   begin
      id 8
      name Head
      direction 0.000000 1.000000 0.000000
      length 4.527550
      axis 0.0 0.0 0.0 xyz
      dof rx ry rz
   end
   begin
      id 9
      name LeftShoulder
      direction 1.000000 0.000000 0.000000
      length 7.205867
      axis 0.0 0.0 -90.0 xyz
      dof rx ry rz
   end
   begin
      id 10
      name LeftArm
      direction 1.000000 0.000000 0.000000
      length 10.786708
      axis 0.0 0.0 -90.0 xyz
      dof rx ry rz
   end
   begin
      id 11
      name LeftForeArm
      direction 1.000000 0.000000 0.000000
      length 7.946034
      axis 0.0 0.0 -90.0 xyz
      dof rz ry rx
   end
   begin
      id 12
      name LeftHand
      direction 0.000000 0.000000 0.000000
      length 0.000000
      axis 0.0 0.0 -90.0 xyz
      dof rx ry rz
   end
   begin
      id 13
      name LeftHand_dum1
      direction 0.000000 0.000000 0.000000
      length 0.000000
      axis 0.0 0.0 -90.0 xyz
   end
   begin
      id 14
      name LeftHand_dum2
      direction 1.000000 0.000000 0.000000
      length 3.937000
      axis 0.0 0.0 -90.0 xyz
   end
   begin
      id 15
      name LeftHandThumb1
      direction 0.000000 0.000000 1.000000
      length 3.937000
      axis 0.0 0.0 -90.0 xyz
      dof rx ry rz
   end
   begin
      id 16
      name RightShoulder
      direction -1.000000 0.000000 0.000000
      length 7.205867
      axis 0.0 0.0 90.0 xyz
      dof rx ry rz
   end
   begin
      id 17
      name RightArm
      direction -1.000000 0.000000 0.000000
      length 10.786708
      axis 0.0 0.0 90.0 xyz
      dof rx ry rz
   end
   begin
      id 18
      name RightForeArm
      direction -1.000000 0.000000 0.000000
      length 7.946034
      axis 0.0 0.0 90.0 xyz
      dof rz ry rx
   end
   begin
      id 19
      name RightHand
      direction 0.000000 0.000000 0.000000
      length 0.000000
      axis 0.0 0.0 90.0 xyz
      dof rx ry rz
   end
   begin
      id 20
      name RightHand_dum1
      direction 0.000000 0.000000 0.000000
      length 0.000000
      axis 0.0 0.0 90.0 xyz
   end
   begin
      id 21
      name RightHand_dum2
      direction -1.000000 0.000000 0.000000
      length 3.937000
      axis 0.0 0.0 90.0 xyz
   end
   begin
      id 22
      name RightHandThumb1
      direction 0.000000 0.000000 1.000000
      length 3.937000
      axis 0.0 0.0 90.0 xyz
      dof rx ry rz
   end
   begin
      id 23
      name LeftUpLeg
      direction 0.000000 -1.000000 0.000000
      length 17.046659
      axis 0.0 0.0 0.0 xyz
      dof rx ry rz
   end
   begin
      id 24
      name LeftLeg
      direction 0.000000 -1.000000 0.000000
      length 17.458438
      axis 0.0 0.0 0.0 xyz
      dof rx ry rz
   end
   begin
      id 25
      name LeftFoot
      direction 0.000000 -0.258819 0.965926
      length 5.099406
      axis 15.0 0.0 0.0 xyz
      dof rx ry rz
   end
   begin
      id 26
      name LeftToeBase
      direction 0.000000 0.000000 1.000000
      length 2.952750
      axis 0.0 0.0 0.0 xyz
      dof rx ry rz
   end
   begin
      id 27
      name RightUpLeg
      direction 0.000000 -1.000000 0.000000
      length 17.046659
      axis 0.0 0.0 0.0 xyz
      dof rx ry rz
   end
   begin
      id 28
      name RightLeg
      direction 0.000000 -1.000000 0.000000
      length 17.458438
      axis 0.0 0.0 0.0 xyz
      dof rx ry rz
   end
   begin
      id 29
      name RightFoot
      direction 0.000000 -0.258819 0.965926
      length 5.099406
      axis 15.0 0.0 0.0 xyz
      dof rx ry rz
   end
   begin
      id 30
      name RightToeBase
      direction 0.000000 0.000000 1.000000
      length 2.952750
      axis 0.0 0.0 0.0 xyz
      dof rx ry rz
   end
:hierarchy
   begin
      root Spine_dum LeftUpLeg_dum RightUpLeg_dum
      Spine_dum Spine
      LeftUpLeg_dum LeftUpLeg
      RightUpLeg_dum RightUpLeg
      Spine Spine_dum1 Spine_dum2 Spine_dum3
      Spine_dum1 Head
      Spine_dum2 LeftShoulder
      Spine_dum3 RightShoulder
      LeftShoulder LeftArm
      LeftArm LeftForeArm
      LeftForeArm LeftHand
      LeftHand LeftHand_dum1 LeftHand_dum2
      LeftHand_dum1 LeftHandThumb1
      RightShoulder RightArm
      RightArm RightForeArm
      RightForeArm RightHand
      RightHand RightHand_dum1 RightHand_dum2
      RightHand_dum1 RightHandThumb1
      LeftUpLeg LeftLeg
      LeftLeg LeftFoot
      LeftFoot LeftToeBase
      RightUpLeg RightLeg
      RightLeg RightFoot
      RightFoot RightToeBase
   end

# File created by Blade
# Date/Time:  Thu Jan 15 17:55:09 2015
# Frame Rate: 120.000 fps
#------------------------------------------------------
:FULLY-SPECIFIED
:DEGREES
1566
root 6.578041 35.704314 -9.372751 3.254413 -2.258638 0.491319
Spine -5.772220 -14.274306 0.188784
Head 1.171136 12.637317 14.682244
LeftShoulder -33.410836 2.050693 14.656509
LeftArm 11.084225 -45.900848 -18.059138
LeftForeArm -0.000000 23.646045 -3.607196
LeftHand -0.252070 -0.000000 6.264648
LeftHandThumb1 -26.253704 33.147579 0.000000
RightShoulder -3.631769 20.323677 -13.351570
RightArm 2.912932 38.502518 20.387874
RightForeArm -0.000000 -51.117425 12.738965
RightHand -3.322874 -0.000000 0.809489
RightHandThumb1 -24.326973 -32.862282 -0.000000
LeftUpLeg 4.528792 8.498247 0.952821
LeftLeg -1.264527 -0.000000 0.000000
LeftFoot -24.540381 19.256209 -16.445212
LeftToeBase 24.625124 -0.000000 -0.000000
RightUpLeg -4.371954 -11.190311 -5.983211
RightLeg 13.963370 -0.000000 -0.000000
RightFoot -30.357815 -22.488391 17.232812
RightToeBase 12.558087 -0.000000 -0.000000
1567
root 6.607676 35.708570 -9.360618 3.056339 -2.254015 0.476979
Spine -5.596219 -14.254594 0.119465
Head 1.226059 12.531417 14.681411
LeftShoulder -33.338693 2.159812 14.620644
LeftArm 11.430601 -45.780038 -18.230011
LeftForeArm 0.000000 23.640624 -3.600374
LeftHand -0.260628 -0.000000 6.150754
LeftHandThumb1 -26.253704 33.147579 0.000000
RightShoulder -3.611629 20.128940 -13.372229
RightArm 3.042538 38.457589 20.530361
RightForeArm 0.000000 -51.038878 12.681411
RightHand -3.240772 -0.000000 0.385655
RightHandThumb1 -24.326973 -32.862282 -0.000000
LeftUpLeg 4.689716 8.671168 0.964650
LeftLeg -1.158838 -0.000000 0.000000
LeftFoot -24.542353 19.106089 -16.317286
LeftToeBase 24.687001 -0.000000 -0.000000
RightUpLeg -3.883324 -11.140084 -5.958698
RightLeg 13.280557 -0.000000 -0.000000
RightFoot -30.447412 -22.089571 17.199000
RightToeBase 12.394530 -0.000000 -0.000000
1568
root 6.631213 35.711276 -9.349052 2.908575 -2.251453 0.461608
Spine -5.495553 -14.201160 0.051765
Head 1.318329 12.384370 14.708930
LeftShoulder -33.223262 2.253473 14.623904
LeftArm 11.729287 -45.606222 -18.377689
LeftForeArm -0.000000 23.636621 -3.582851
LeftHand -0.244645 0.000000 6.120762
LeftHandThumb1 -26.253704 33.147579 0.000000
RightShoulder -3.594802 20.008787 -13.393718
RightArm 3.133280 38.494086 20.627521
RightForeArm -0.000000 -51.005024 12.532863
RightHand -2.998849 -0.000000 0.071282
RightHandThumb1 -24.326973 -32.862282 -0.000000
LeftUpLeg 4.761628 8.943447 0.987197
LeftLeg -0.975842 -0.000000 0.000000
LeftFoot -24.556940 18.815921 -16.284479
LeftToeBase 24.641587 -0.000000 -0.000000
RightUpLeg -3.441724 -11.055143 -5.912953
RightLeg 12.604825 -0.000000 -0.000000
RightFoot -30.360530 -21.628707 17.305699
RightToeBase 12.494601 -0.000000 -0.000000
1569
root 6.654431 35.711887 -9.334305 2.802125 -2.228627 0.445677
Spine -5.467696 -14.194798 0.029758
Head 1.467380 12.275031 14.693535
LeftShoulder -33.141405 2.322898 14.591404
LeftArm 12.024118 -45.451408 -18.459588
LeftForeArm -0.000000 23.598277 -3.592729
LeftHand -0.235940 -0.000000 6.038137
LeftHandThumb1 -26.253704 33.147579 0.000000
RightShoulder -3.532927 19.923884 -13.453553
RightArm 3.189107 38.601668 20.730299
RightForeArm -0.000000 -51.062431 12.391065
RightHand -2.893822 -0.000000 0.087927
RightHandThumb1 -24.326973 -32.862282 -0.000000
LeftUpLeg 4.829388 9.230647 1.009650
LeftLeg -0.860575 -0.000000 0.000000
LeftFoot -24.560519 18.570083 -16.079240
LeftToeBase 24.778214 -0.000000 -0.000000
RightUpLeg -3.033116 -11.103919 -5.845281
RightLeg 11.932364 -0.000000 -0.000000
RightFoot -30.066581 -21.170232 17.383726
RightToeBase 12.688871 -0.000000 -0.000000
1570
root 6.668492 35.710499 -9.323535 2.782299 -2.213820 0.434593
Spine -5.559329 -14.151824 0.002974
Head 1.661822 12.121302 14.693782
LeftShoulder -33.005276 2.388460 14.573293
LeftArm 12.250000 -45.292027 -18.473196
LeftForeArm -0.000000 23.606062 -3.566837
LeftHand -0.235968 -0.000000 5.842257
LeftHandThumb1 -26.253704 33.147579 0.000000
RightShoulder -3.465727 19.840530 -13.479018
RightArm 3.227222 38.641389 20.760747
RightForeArm -0.000000 -51.047688 12.192966
RightHand -2.879106 -0.000000 0.062850
RightHandThumb1 -24.326973 -32.862282 -0.000000
LeftUpLeg 4.808416 9.463566 1.024728
LeftLeg -0.751385 -0.000000 0.000000
LeftFoot -24.550115 18.311647 -16.013988
LeftToeBase 24.681415 -0.000000 -0.000000
RightUpLeg -2.615417 -10.880313 -5.758451
RightLeg 11.110980 -0.000000 -0.000000
RightFoot -29.488138 -20.822004 17.341486
RightToeBase 12.849958 -0.000000 -0.000000
1571
root 6.684647 35.704912 -9.310840 2.811253 -2.184888 0.482204
Spine -5.727705 -14.134535 -0.054217
Head 1.884861 11.982478 14.678264
LeftShoulder -32.887037 2.424663 14.564487
LeftArm 12.477097 -45.063835 -18.463437
LeftForeArm -0.000000 23.527282 -3.559426
LeftHand -0.238095 0.000000 5.751054
LeftHandThumb1 -26.253704 33.147579 0.000000
RightShoulder -3.420087 19.722633 -13.555528
RightArm 3.327025 38.816870 20.872756
RightForeArm -0.000000 -50.993737 11.972036
RightHand -2.741114 -0.000000 0.160912
RightHandThumb1 -24.326973 -32.862282 -0.000000
LeftUpLeg 4.738735 9.645502 0.966439
LeftLeg -0.646328 -0.000000 0.000000
LeftFoot -24.579280 18.117665 -15.918634
LeftToeBase 24.745046 -0.000000 -0.000000
RightUpLeg -2.360384 -10.893717 -5.706752
RightLeg 10.520014 -0.000000 -0.000000
RightFoot -28.674011 -20.355368 17.243055
RightToeBase 12.764173 -0.000000 -0.000000
1572
root 6.698175 35.696373 -9.298445 2.878158 -2.172021 0.558453
Spine -5.953430 -14.127025 -0.131203
Head 2.124396 11.855681 14.650613
LeftShoulder -32.817124 2.422790 14.563616
LeftArm 12.732481 -44.876115 -18.440994
LeftForeArm -0.000000 23.498092 -3.546387
LeftHand -0.377889 -0.000000 5.588715
LeftHandThumb1 -26.253704 33.147579 0.000000
RightShoulder -3.340002 19.671659 -13.611443
RightArm 3.416750 38.962817 20.941594
RightForeArm 0.000000 -50.953344 11.723784
RightHand -2.646924 -0.000000 0.382865
RightHandThumb1 -24.326973 -32.862282 -0.000000
LeftUpLeg 4.627073 9.853506 0.878649
LeftLeg -0.530318 -0.000000 0.000000
LeftFoot -24.604889 17.902947 -15.806337
LeftToeBase 24.778193 -0.000000 -0.000000
RightUpLeg -2.137495 -10.916995 -5.671533
RightLeg 9.943389 -0.000000 -0.000000
RightFoot -27.614117 -19.865412 17.136154
RightToeBase 12.678284 -0.000000 -0.000000
1573
root 6.708571 35.683193 -9.285814 2.974496 -2.176579 0.692137
Spine -6.214472 -14.104836 -0.278663
Head 2.358059 11.710888 14.643653
LeftShoulder -32.766124 2.445952 14.551003
LeftArm 13.023816 -44.715702 -18.417314
LeftForeArm -0.000000 23.488722 -3.541025
LeftHand -0.356363 0.000000 5.575211
LeftHandThumb1 -26.253704 33.147579 0.000000
RightShoulder -3.262271 19.730899 -13.675162
RightArm 3.413265 38.895848 20.974612
RightForeArm -0.000000 -50.914400 11.549897
RightHand -2.757856 0.000000 0.709281
RightHandThumb1 -24.326973 -32.862282 -0.000000
LeftUpLeg 4.501059 10.011859 0.728163
LeftLeg -0.445821 -0.000000 0.000000
LeftFoot -24.653749 17.785767 -15.678195
LeftToeBase 24.933994 -0.000000 -0.000000
RightUpLeg -1.971645 -10.857867 -5.676913
RightLeg 9.399561 -0.000000 -0.000000
RightFoot -26.543949 -19.655804 16.640924
RightToeBase 13.528068 -0.000000 -0.000000
1574
root 6.718204 35.666403 -9.269767 3.062855 -2.178536 0.882864
Spine -6.475924 -14.101501 -0.485878
Head 2.598179 11.583270 14.641684
LeftShoulder -32.729193 2.459199 14.574167
LeftArm 13.285816 -44.577938 -18.418549
LeftForeArm -0.000000 23.524653 -3.504131
LeftHand -0.367493 -0.000000 5.532437
LeftHandThumb1 -26.253704 33.147579 0.000000
RightShoulder -3.183804 19.731910 -13.730157
RightArm 3.487551 38.990285 21.041926
RightForeArm -0.000000 -50.919648 11.335880
RightHand -2.825867 -0.000000 1.052877
RightHandThumb1 -24.326973 -32.862282 -0.000000
LeftUpLeg 4.398733 10.117038 0.520386
LeftLeg -0.381404 -0.000000 0.000000
LeftFoot -24.666621 17.628614 -15.712829
LeftToeBase 24.796531 -0.000000 -0.000000
RightUpLeg -1.803019 -10.997411 -5.753998
RightLeg 8.796992 -0.000000 -0.000000
RightFoot -26.153265 -19.806309 15.567193
RightToeBase 16.040950 -0.000000 -0.000000
1575
root 6.724500 35.648394 -9.252700 3.161337 -2.166833 1.107289
Spine -6.765357 -14.099942 -0.736086
Head 2.868201 11.450721 14.639807
LeftShoulder -32.666249 2.436643 14.562675
LeftArm 13.510472 -44.453169 -18.304010
LeftForeArm -0.000000 23.562416 -3.474500
LeftHand -0.405799 -0.000000 5.468772
LeftHandThumb1 -26.253704 33.147579 0.000000
RightShoulder -3.117438 19.750517 -13.760153
RightArm 3.568745 39.041252 21.060755
RightForeArm -0.000000 -50.993437 11.096357
RightHand -2.807220 0.000000 1.467143
RightHandThumb1 -24.326973 -32.862282 -0.000000
LeftUpLeg 4.288095 10.184500 0.283519
LeftLeg -0.321804 -0.000000 0.000000
LeftFoot -24.694211 17.513295 -15.700557
LeftToeBase 24.806373 -0.000000 -0.000000
RightUpLeg -1.640539 -11.256138 -5.871517
RightLeg 8.099959 -0.000000 -0.000000
RightFoot -26.189553 -20.548225 15.433691
RightToeBase 18.628656 -0.000000 -0.000000
1576
root 6.726704 35.630645 -9.232502 3.230534 -2.163925 1.331641
Spine -7.021546 -14.096620 -0.993628
Head 3.135927 11.361115 14.634348
LeftShoulder -32.635270 2.467549 14.515746
LeftArm 13.790657 -44.440203 -18.267640
LeftForeArm -0.000000 23.600059 -3.396884
LeftHand -0.399524 -0.000000 5.435137
LeftHandThumb1 -26.253704 33.147579 0.000000
RightShoulder -3.063795 19.767615 -13.785794
RightArm 3.648687 38.955196 21.096017
RightForeArm -0.000000 -50.968783 10.937070
RightHand -2.887876 -0.000000 1.825984
RightHandThumb1 -24.326973 -32.862282 -0.000000
LeftUpLeg 4.231567 10.239297 0.058538
LeftLeg -0.293638 -0.000000 0.000000
LeftFoot -24.713621 17.397527 -15.713419
LeftToeBase 24.819345 -0.000000 -0.000000
RightUpLeg -1.429056 -11.626477 -6.011718
RightLeg 7.309079 -0.000000 -0.000000
RightFoot -26.155663 -21.809502 15.635143
RightToeBase 21.435771 -0.000000 -0.000000
